<?xml version="1.0" encoding="UTF-8"?>
<!DOCTYPE svg PUBLIC "-//W3C//DTD SVG 1.1//EN" "http://www.w3.org/Graphics/SVG/1.1/DTD/svg11.dtd">
<!-- Creator: CorelDRAW X7 -->
<svg xmlns="http://www.w3.org/2000/svg" xml:space="preserve" width="10.2726mm" height="10.2726mm" version="1.1" style="shape-rendering:geometricPrecision; text-rendering:geometricPrecision; image-rendering:optimizeQuality; fill-rule:evenodd; clip-rule:evenodd"
viewBox="0 0 54 54"
 xmlns:xlink="http://www.w3.org/1999/xlink">
 <defs>
  <style type="text/css">
   <![CDATA[
    .fil0 {fill:none}
    .fil1 {fill:#43B036}
   ]]>
  </style>
 </defs>
 <g id="Capa_x0020_1">
  <metadata id="CorelCorpID_0Corel-Layer"/>
  <rect class="fil0" width="53.8995" height="53.8995"/>
  <g id="_1407717663808">
   <path class="fil1" d="M43 32c-6,0 -11,5 -11,11 0,6 5,11 11,11 6,0 11,-5 11,-11 0,-6 -5,-11 -11,-11zm0 20c-5,0 -10,-4 -10,-9 0,-5 5,-10 10,-10 5,0 9,5 9,10 0,5 -4,9 -9,9z"/>
   <path class="fil1" d="M48 42l-4 0 0 -5c0,0 -1,-1 -1,-1 -1,0 -1,1 -1,1l0 6c0,0 0,1 1,1l5 0c1,0 1,-1 1,-1 0,-1 0,-1 -1,-1z"/>
   <path class="fil1" d="M25 20l-2 0 -6 0 -2 0 -8 0 0 8 0 2 0 6 0 2 0 8 8 0 2 0 8 0 0 -8 0 -2 0 -6 7 0 1 0 9 0 0 -10 -9 0 -1 0 -7 0zm8 1l7 0 0 7 -7 0 0 -7zm-16 0l6 0 0 7 -6 0 0 -7zm-9 0l7 0 0 7 -7 0 0 -7zm0 9l7 0 0 6 -7 0 0 -6zm7 15l-7 0 0 -7 7 0 0 7zm8 0l-6 0 0 -7 6 0 0 7zm0 -9l-6 0 0 -6 6 0 0 6zm9 -8l-7 0 0 -7 7 0 0 7z"/>
   <path class="fil1" d="M31 51l-29 0 0 -36 44 0 0 12c0,0 1,1 1,1 1,0 1,-1 1,-1l0 -13 0 -9c0,-1 0,-1 -1,-1l-4 0 0 -3c0,-1 -1,-1 -1,-1l-7 0c0,0 -1,0 -1,1l0 3 -20 0 0 -3c0,-1 0,-1 -1,-1l-6 0c-1,0 -1,0 -1,1l0 3 -5 0c-1,0 -1,0 -1,1l0 9 0 38c0,1 0,1 1,1l30 0c0,0 1,0 1,-1 0,0 -1,-1 -1,-1zm5 -49l5 0 0 3 0 2 -5 0 0 -2 0 -3zm-29 0l5 0 0 3 0 2 -5 0 0 -2 0 -3zm-5 4l4 0 0 2c0,1 0,1 1,1l6 0c1,0 1,0 1,-1l0 -2 20 0 0 2c0,1 1,1 1,1l7 0c0,0 1,0 1,-1l0 -2 3 0 0 7 -44 0 0 -7z"/>
  </g>
 </g>
</svg>
