<?xml version="1.0" encoding="UTF-8"?>
<!DOCTYPE svg PUBLIC "-//W3C//DTD SVG 1.1//EN" "http://www.w3.org/Graphics/SVG/1.1/DTD/svg11.dtd">
<!-- Creator: CorelDRAW X7 -->
<svg xmlns="http://www.w3.org/2000/svg" xml:space="preserve" width="10.2726mm" height="10.2726mm" version="1.1" style="shape-rendering:geometricPrecision; text-rendering:geometricPrecision; image-rendering:optimizeQuality; fill-rule:evenodd; clip-rule:evenodd"
viewBox="0 0 302 302"
 xmlns:xlink="http://www.w3.org/1999/xlink"
 enable-background="new 0 0 512 512">
 <defs>
  <style type="text/css">
   <![CDATA[
    .fil1 {fill:none}
    .fil0 {fill:#3D8729}
   ]]>
  </style>
 </defs>
 <g id="Capa_x0020_1">
  <metadata id="CorelCorpID_0Corel-Layer"/>
  <g id="_1407755540832">
   <path class="fil0" d="M238 63l-13 0 0 -32c0,-10 -8,-18 -18,-18l-136 0 -49 48 -9 -9 51 -50c1,-1 2,-2 4,-2l139 0c17,0 31,14 31,31l0 32z"/>
   <path class="fil0" d="M207 302l-164 0c-17,0 -32,-14 -32,-31l0 -214c0,-4 3,-7 7,-7l44 0 0 -44 12 0 0 51c0,3 -2,6 -6,6l-44 0 0 208c0,10 8,18 19,18l164 0c10,0 18,-8 18,-18l0 -32 13 0 0 32c0,17 -14,31 -31,31z"/>
   <polygon class="fil0" points="43,88 151,88 151,101 43,101 "/>
   <polygon class="fil0" points="43,120 151,120 151,132 43,132 "/>
   <polygon class="fil0" points="43,151 151,151 151,164 43,164 "/>
   <polygon class="fil0" points="43,183 151,183 151,195 43,195 "/>
   <polygon class="fil0" points="43,214 151,214 151,227 43,227 "/>
   <polygon class="fil0" points="43,245 207,245 207,258 43,258 "/>
   <path class="fil0" d="M287 153c-2,0 -3,1 -3,4l0 35c0,9 -7,17 -15,17l-75 0c-8,0 -15,-8 -15,-17l0 -36c0,-2 -1,-4 -3,-4 -2,0 -4,2 -4,4l0 36c0,13 10,25 22,25l75 0c12,0 22,-12 22,-25l0 -35c0,-3 -2,-4 -4,-4z"/>
   <path class="fil0" d="M203 119l23 -22 0 99c0,3 2,5 5,5 3,0 5,-2 5,-5l0 -99 23 22c1,1 2,2 3,2 1,0 3,-1 3,-2 2,-1 2,-5 0,-6l-31 -32c-1,0 -2,-1 -3,-1 -1,0 -3,1 -4,1l-31 32c-2,1 -2,5 0,6 2,2 5,2 7,0z"/>
  </g>
  <rect class="fil1" width="302" height="302"/>
 </g>
</svg>
