<?xml version="1.0" encoding="UTF-8"?>
<!DOCTYPE svg PUBLIC "-//W3C//DTD SVG 1.1//EN" "http://www.w3.org/Graphics/SVG/1.1/DTD/svg11.dtd">
<!-- Creator: CorelDRAW X7 -->
<svg xmlns="http://www.w3.org/2000/svg" xml:space="preserve" width="10.2726mm" height="10.2726mm" version="1.1" style="shape-rendering:geometricPrecision; text-rendering:geometricPrecision; image-rendering:optimizeQuality; fill-rule:evenodd; clip-rule:evenodd"
viewBox="0 0 75 75"
 xmlns:xlink="http://www.w3.org/1999/xlink"
 enable-background="new 0 0 2000 2000">
 <defs>
  <style type="text/css">
   <![CDATA[
    .fil1 {fill:none}
    .fil0 {fill:#3D8729}
   ]]>
  </style>
 </defs>
 <g id="Capa_x0020_1">
  <metadata id="CorelCorpID_0Corel-Layer"/>
  <g id="_1407752700912">
   <path class="fil0" d="M73 29l-12 -7c0,0 0,0 0,0l0 -21c0,-1 0,-1 -1,-1l-5 0c0,0 -1,0 -1,1 0,1 1,1 1,1l4 0 0 19 -10 -6 5 0c1,0 2,0 2,-1 0,-1 -1,-1 -2,-1l-8 0c0,0 0,0 0,0l-4 -3 12 0c1,0 2,0 2,-1 0,0 -1,-1 -2,-1l-16 0c0,0 0,0 0,0l-6 -3c0,0 -1,0 -1,0l-1 1 -11 0c0,0 -1,0 -1,1l0 12c0,0 1,1 1,1l3 0 -8 12 0 -30 36 0c1,0 1,0 1,-1 0,-1 0,-1 -1,-1l-37 0c0,0 -1,0 -1,1l0 35 -10 18c-1,0 0,1 0,1l32 19c1,1 1,1 1,1l13 -4c0,0 1,0 1,0l7 -12 4 0c1,0 1,-1 1,-2l0 -7 12 -19c0,-1 0,-2 0,-2zm-50 -11l-3 0 0 -10 9 0 -6 10c0,0 0,0 0,0zm14 54l3 -5 5 3 -1 0 -7 2zm22 -16l-2 0 2 -3 0 3zm-12 13l-7 -5c0,0 -1,0 -1,1l-5 7 -30 -18 28 -47 38 23 -23 39z"/>
   <path class="fil0" d="M40 20l8 5c0,0 0,0 0,0 1,0 1,0 1,0 0,-1 0,-2 0,-2l-8 -5c-1,0 -2,0 -2,1 0,0 0,1 1,1z"/>
   <path class="fil0" d="M52 27l11 7c0,0 1,0 1,-1 1,0 0,-1 0,-1l-11 -7c-1,0 -1,0 -2,1 0,0 0,1 1,1z"/>
   <path class="fil0" d="M29 22l9 5c0,0 0,0 1,0 0,0 0,0 0,0 1,-1 1,-1 0,-2l-9 -5c-1,0 -1,0 -1,0 -1,1 -1,2 0,2z"/>
   <path class="fil0" d="M60 38l-17 -10c0,0 -1,0 -1,0 -1,1 -1,1 0,2l17 10c1,0 1,0 2,0 0,-1 0,-2 -1,-2z"/>
   <path class="fil0" d="M57 43l-30 -18c-1,0 -1,0 -2,0 0,1 0,2 1,2l30 18c1,0 1,0 2,0 0,-1 0,-2 -1,-2z"/>
   <path class="fil0" d="M54 48l-23 -14c-1,0 -1,0 -1,1 -1,0 -1,1 0,1l23 14c1,0 1,0 2,0 0,-1 0,-2 -1,-2z"/>
   <path class="fil0" d="M20 37l18 11c0,0 0,0 1,0 0,0 0,0 0,-1 1,0 1,-1 0,-1l-18 -11c-1,0 -1,0 -2,0 0,1 0,2 1,2z"/>
   <path class="fil0" d="M51 53l-8 -5c0,0 -1,0 -1,1 -1,0 -1,1 0,1l8 5c1,0 1,0 2,0 0,-1 0,-1 -1,-2z"/>
   <path class="fil0" d="M17 42l7 4c0,0 0,0 0,0 1,0 1,0 1,0 1,-1 0,-1 0,-2l-7 -4c-1,0 -1,0 -2,0 0,1 0,2 1,2z"/>
   <path class="fil0" d="M48 58l-19 -11c-1,-1 -1,0 -2,0 0,1 0,1 1,2l19 11c1,0 1,0 2,0 0,-1 0,-1 -1,-2z"/>
   <path class="fil0" d="M45 63l-30 -18c-1,0 -1,0 -2,1 0,0 0,1 1,1l30 18c1,1 1,0 2,0 0,-1 0,-1 -1,-2z"/>
   <path class="fil0" d="M24 57l-12 -7c-1,0 -1,0 -2,1 0,0 0,1 1,1l12 7c0,0 0,0 0,0 1,0 1,0 1,0 1,-1 0,-1 0,-2z"/>
   <path class="fil0" d="M35 64l-7 -4c-1,0 -1,0 -2,0 0,1 0,1 1,2l7 4c0,0 1,0 1,-1 1,0 1,-1 0,-1z"/>
  </g>
  <rect class="fil1" width="74.6003" height="74.6003"/>
 </g>
</svg>
