<?xml version="1.0" encoding="UTF-8"?>
<!DOCTYPE svg PUBLIC "-//W3C//DTD SVG 1.1//EN" "http://www.w3.org/Graphics/SVG/1.1/DTD/svg11.dtd">
<!-- Creator: CorelDRAW X7 -->
<svg xmlns="http://www.w3.org/2000/svg" xml:space="preserve" width="10.3188mm" height="10.2747mm" version="1.1" style="shape-rendering:geometricPrecision; text-rendering:geometricPrecision; image-rendering:optimizeQuality; fill-rule:evenodd; clip-rule:evenodd"
viewBox="0 0 896 892"
 xmlns:xlink="http://www.w3.org/1999/xlink">
 <defs>
  <style type="text/css">
   <![CDATA[
    .fil1 {fill:none}
    .fil0 {fill:#43B036}
   ]]>
  </style>
 </defs>
 <g id="Capa_x0020_1">
  <metadata id="CorelCorpID_0Corel-Layer"/>
  <g id="_2609937758784">
   <path class="fil0" d="M356 400c70,0 126,-72 126,-161 0,-89 -56,-161 -126,-161 -70,0 -126,72 -126,161 0,89 56,161 126,161zm0 -286c54,0 98,56 98,125 0,69 -44,125 -98,125 -54,0 -98,-56 -98,-125 0,-69 44,-125 98,-125z"/>
   <path class="fil0" d="M896 540c0,-102 -61,-194 -155,-232l0 -252c0,-25 -20,-46 -46,-46l-649 0c-25,0 -46,21 -46,46l0 780c0,26 21,47 46,47l649 0c26,0 46,-21 46,-47l0 -64c94,-39 155,-130 155,-232zm-185 242l0 54c0,8 -7,15 -16,15l-649 0c-8,0 -15,-7 -15,-15l0 -780c0,-8 7,-15 15,-15l649 0c9,0 16,7 16,15l0 242c-4,-1 -7,-2 -10,-2 -1,-1 -2,-1 -4,-1 -7,-2 -14,-3 -21,-4 -2,0 -3,0 -5,0 -7,-1 -15,-1 -22,-1 -8,0 -15,0 -22,1 -2,0 -4,0 -6,0 -7,1 -14,2 -20,4 -2,0 -5,1 -7,1 -4,1 -9,2 -14,4 -3,1 -6,1 -9,2 -4,2 -9,4 -13,6 -4,1 -8,3 -11,4 -4,2 -8,4 -11,6 -3,1 -6,2 -8,4 -6,3 -11,6 -16,10 -2,1 -3,2 -5,3 -4,3 -8,6 -13,10 -1,1 -3,2 -4,4 -6,4 -11,9 -16,14l0 0c-5,5 -10,11 -14,16 -1,1 -2,2 -3,4 -5,5 -9,11 -13,17l0 0c-2,3 -4,6 -5,8 -23,5 -45,7 -68,7 -79,0 -123,-22 -124,-31 0,-5 -3,-9 -6,-11 -4,-3 -9,-4 -13,-3 -23,6 -43,23 -52,46 -39,4 -68,38 -68,77l0 266c0,8 7,15 16,15l432 0c2,0 3,0 5,-1 4,2 7,3 11,5 3,1 7,2 10,2 4,2 8,3 12,4 3,0 7,1 11,2 3,1 7,1 11,2 4,0 7,1 11,1 5,0 10,1 15,1 2,0 4,0 7,0l1 0c7,0 15,0 22,-1 3,0 5,-1 8,-1 5,-1 10,-1 15,-2 3,-1 6,-2 9,-2 2,-1 4,-1 7,-2zm-309 -225c0,2 1,4 1,5l0 1c0,1 0,3 0,4 0,2 1,5 1,7 0,2 1,4 1,6 0,3 1,5 1,8l1 4c0,2 1,3 1,5 1,4 2,8 3,12 1,1 1,2 1,4 0,0 0,0 1,1 0,0 0,1 0,2 2,4 3,8 5,12 0,2 1,3 1,4 0,1 1,2 1,3 1,1 1,2 2,4 0,1 1,3 2,5 1,1 2,3 2,5 2,3 3,6 5,9 0,0 1,1 1,2 1,1 1,3 2,4 2,3 4,6 6,10 1,1 2,3 3,4 3,4 5,8 8,12 1,1 1,1 1,2 2,2 4,4 6,7l0 0c2,2 3,4 5,5 1,2 2,3 3,4 2,3 5,6 8,9 1,1 3,2 4,4 3,2 5,5 8,7 2,1 3,3 4,4 4,3 7,5 10,7 1,1 2,2 4,3 0,1 0,1 1,1l-304 0 0 -297c0,-4 0,-7 1,-11 0,0 0,-1 0,-1 3,-12 11,-23 22,-29 23,28 87,41 147,41 16,0 33,-1 50,-3l0 0c-3,7 -5,14 -7,20 -1,1 -1,2 -1,3 -1,1 -1,2 -1,3 -2,6 -3,12 -5,18 0,1 0,2 0,3l0 1c-2,7 -3,14 -4,21 0,1 0,2 0,3 0,1 0,2 0,3 -1,7 -1,15 -1,22 0,6 0,11 0,17l0 0 0 0zm-263 186l0 -250c0,-20 12,-38 31,-44l0 294 -31 0zm578 4c-3,1 -7,2 -10,3 -3,1 -7,2 -10,3 -3,1 -7,2 -11,2 -3,1 -6,1 -9,2 -4,0 -8,1 -12,1 -3,0 -6,0 -9,0 -4,0 -8,1 -12,0 -3,0 -5,0 -8,0 -5,0 -9,0 -13,-1 -3,0 -5,-1 -7,-1 -5,-1 -9,-1 -14,-3 -2,0 -5,-1 -7,-1 -4,-1 -8,-2 -12,-4 -4,-1 -8,-2 -11,-4 -3,-1 -6,-2 -8,-3 -6,-3 -12,-5 -18,-9 0,0 -1,0 -1,0 -6,-3 -11,-7 -16,-10l-2 -2c-5,-3 -10,-7 -15,-11l-1 0c-10,-9 -20,-19 -28,-29 -1,-1 -1,-2 -2,-2 -4,-5 -7,-10 -10,-15 -1,0 -1,-1 -2,-1 -3,-6 -7,-11 -10,-17 0,-1 -1,-2 -2,-3 -2,-5 -4,-10 -6,-14 -1,-2 -2,-4 -2,-6 -2,-4 -4,-9 -5,-14 -1,-1 -2,-3 -2,-4 -2,-6 -3,-12 -5,-18 0,-2 0,-4 -1,-6 -1,-5 -1,-10 -2,-14 0,-2 0,-4 0,-6 -1,-7 -1,-13 -1,-20 0,-7 0,-13 0,-20 1,-2 1,-3 1,-5 1,-6 2,-12 3,-19 0,0 0,-1 0,-2 2,-6 3,-11 5,-16 0,-2 0,-4 1,-5 2,-6 4,-12 6,-18 1,0 1,-1 1,-2 2,-5 5,-10 7,-15 1,-1 2,-3 3,-5 3,-5 6,-10 9,-15 4,-6 8,-11 12,-16 1,-1 1,-2 2,-3 4,-5 8,-9 13,-14l0 0c4,-4 9,-8 14,-12 1,-2 2,-3 4,-4 3,-3 7,-6 11,-8 1,-1 3,-2 4,-3 5,-3 9,-6 14,-9 2,-1 5,-2 7,-4 3,-1 6,-3 9,-4 4,-2 7,-3 10,-5 4,-1 8,-3 12,-4 3,-1 5,-2 8,-2 4,-2 8,-3 12,-4 2,0 4,-1 6,-1 5,-1 11,-2 17,-3 2,0 4,0 5,0 7,-1 13,-1 20,-1 7,0 14,0 20,1 2,0 5,1 7,1 4,0 9,1 13,2 3,0 5,1 8,2 4,1 8,2 11,3 3,0 6,1 9,2 88,30 148,114 148,208 0,94 -59,177 -148,207z"/>
   <path class="fil0" d="M790 428c-15,-8 -35,-6 -46,6l-169 179 -56 -55c-11,-11 -32,-13 -47,-4 -14,9 -17,25 -5,36l110 109 221 -235c10,-11 7,-28 -8,-36z"/>
  </g>
  <rect class="fil1" x="2" width="892" height="892"/>
 </g>
</svg>
