<?xml version="1.0" encoding="UTF-8"?>
<!DOCTYPE svg PUBLIC "-//W3C//DTD SVG 1.1//EN" "http://www.w3.org/Graphics/SVG/1.1/DTD/svg11.dtd">
<!-- Creator: CorelDRAW X7 -->
<svg xmlns="http://www.w3.org/2000/svg" xml:space="preserve" width="10.2726mm" height="10.2726mm" version="1.1" style="shape-rendering:geometricPrecision; text-rendering:geometricPrecision; image-rendering:optimizeQuality; fill-rule:evenodd; clip-rule:evenodd"
viewBox="0 0 58 58"
 xmlns:xlink="http://www.w3.org/1999/xlink"
 enable-background="new 0 0 2000 2000">
 <defs>
  <style type="text/css">
   <![CDATA[
    .str0 {stroke:#3D8729;stroke-width:1.49603}
    .fil1 {fill:none}
    .fil0 {fill:#3D8729}
   ]]>
  </style>
 </defs>
 <g id="Capa_x0020_1">
  <metadata id="CorelCorpID_0Corel-Layer"/>
  <g id="_1407755535360">
   <path class="fil0" d="M44 15l0 -4c0,1 0,1 1,1l9 0c2,0 4,-2 4,-4 0,-3 -2,-4 -4,-4 -1,-2 -3,-3 -5,-3 -2,0 -3,1 -4,3 -1,0 -2,0 -3,1l-6 0 0 -4c0,-1 -1,-1 -1,-1l-12 0c0,0 -1,0 -1,1l0 4 -7 0c0,0 0,0 0,1 0,0 0,5 0,7l0 2c-6,3 -11,8 -13,15l-1 0c-1,0 -1,0 -1,1l0 12c0,0 0,0 0,0 1,6 3,11 6,15 0,0 1,0 1,0l23 0 8 0 4 0 3 0 4 0 8 0c1,0 1,0 1,-1l0 -12c0,0 0,0 0,0 0,-2 0,-4 0,-5 0,-11 -5,-20 -14,-25zm0 -9c0,0 1,0 1,0 0,0 1,0 1,0 0,0 0,0 1,-1 0,-1 1,-2 2,-2 2,0 3,1 3,2 0,1 0,1 1,1 0,0 0,0 1,0 1,-1 2,0 2,2 0,1 -1,2 -2,2l-9 0c-1,0 -1,0 -1,-1l0 -3zm-8 1l6 0 0 3 0 5 0 1 -6 0 0 -9zm-12 -1l0 -4 10 0 0 4 0 10 -2 0 0 -3c0,-1 0,-1 -1,-1l-4 0c0,0 -1,0 -1,1l0 3 -2 0 0 -10zm6 8l0 2 -2 0 0 -2 2 0zm-14 1l0 -3 0 -4 0 -1 6 0 0 9 -6 0 0 -1zm-1 -7l0 3c0,0 0,-2 0,-3zm-13 24l0 0 6 0 0 10 -6 0 0 -10zm35 24l-6 0 0 -10 6 0 0 10zm8 0l-2 0 0 -3 2 0 0 3zm3 -11l0 11 -2 0 0 -4c0,0 0,-1 -1,-1l-3 0c-1,0 -1,1 -1,1l0 4 -2 0 0 -11 0 -3 9 0 0 3zm8 11l-6 0 0 -10 6 0 0 10zm0 -11l-6 0 0 -4c0,-1 0,-1 -1,-1l-11 0c-1,0 -1,0 -1,1l0 4 -7 0c-1,0 -1,0 -1,0l0 11 -21 0c-3,-4 -5,-8 -6,-12l7 0 4 0 3 0 4 0 8 0c1,0 1,-1 1,-1l0 -12c0,-1 0,-1 -1,-1l-7 0 0 -4c0,0 0,-1 -1,-1l-11 0c-1,0 -1,1 -1,1l0 4 -4 0c2,-5 6,-10 11,-13l0 0c0,1 0,1 0,1l8 0 4 0 4 0 4 0 8 0c0,0 1,0 1,-1l0 0c7,5 12,13 12,23 0,1 0,3 0,5zm-40 -8l-3 0c-1,0 -1,0 -1,1l0 4 -2 0 0 -11 0 -4 9 0 0 4 0 11 -2 0 0 -4c0,-1 0,-1 -1,-1zm-1 2l0 3 -1 0 0 -3 1 0zm6 3l0 -10 6 0 0 10 -6 0z"/>
   <circle class="fil0" cx="44" cy="35" r="1"/>
   <circle class="fil0" cx="41" cy="35" r="1"/>
   <circle class="fil0" cx="37" cy="35" r="1"/>
   <circle class="fil0" cx="33" cy="35" r="1"/>
   <circle class="fil0" cx="14" cy="47" r="1"/>
   <circle class="fil0" cx="25" cy="51" r="1"/>
   <circle class="fil0" cx="21" cy="51" r="1"/>
   <circle class="fil0" cx="17" cy="51" r="1"/>
   <circle class="fil0" cx="14" cy="51" r="1"/>
   <circle class="fil0" cx="27" cy="22" r="1"/>
   <circle class="fil0" cx="27" cy="26" r="1"/>
   <g>
    <g>
     <path class="fil0 str0" d="M39 9l-1 0c0,0 -1,1 -1,1 0,0 1,1 1,1l1 0c0,0 1,-1 1,-1 0,0 -1,-1 -1,-1z"/>
    </g>
   </g>
   <g>
    <g>
     <path class="fil0 str0" d="M27 7l-1 0c0,0 -1,1 -1,1 0,1 1,1 1,1l1 0c0,0 1,0 1,-1 0,0 -1,-1 -1,-1z"/>
    </g>
   </g>
   <g>
    <g>
     <path class="fil0 str0" d="M27 4l-1 0c0,0 -1,1 -1,1 0,1 1,1 1,1l1 0c0,0 1,0 1,-1 0,0 -1,-1 -1,-1z"/>
    </g>
   </g>
   <g>
    <g>
     <path class="fil0 str0" d="M39 12l-1 0c0,0 -1,1 -1,1 0,1 1,1 1,1l1 0c0,0 1,0 1,-1 0,0 -1,-1 -1,-1z"/>
    </g>
   </g>
   <g>
    <g>
     <path class="fil0 str0" d="M20 9l-1 0c0,0 -1,1 -1,1 0,0 1,1 1,1l1 0c0,0 1,-1 1,-1 0,0 -1,-1 -1,-1z"/>
    </g>
   </g>
   <g>
    <g>
     <path class="fil0 str0" d="M20 12l-1 0c0,0 -1,1 -1,1 0,1 1,1 1,1l1 0c0,0 1,0 1,-1 0,0 -1,-1 -1,-1z"/>
    </g>
   </g>
   <g>
    <g>
     <path class="fil0 str0" d="M32 7l-1 0c0,0 -1,1 -1,1 0,1 1,1 1,1l1 0c0,0 1,0 1,-1 0,0 -1,-1 -1,-1z"/>
    </g>
   </g>
   <g>
    <g>
     <path class="fil0 str0" d="M32 4l-1 0c0,0 -1,1 -1,1 0,1 1,1 1,1l1 0c0,0 1,0 1,-1 0,0 -1,-1 -1,-1z"/>
    </g>
   </g>
   <g>
    <g>
     <path class="fil0 str0" d="M24 35l0 0c-1,0 -1,0 -1,1 0,0 0,1 1,1l0 0c1,0 1,-1 1,-1 0,-1 0,-1 -1,-1z"/>
    </g>
   </g>
   <g>
    <g>
     <path class="fil0 str0" d="M13 33l-1 0c-1,0 -1,1 -1,1 0,1 0,1 1,1l1 0c0,0 0,0 0,-1 0,0 0,-1 0,-1z"/>
    </g>
   </g>
   <g>
    <g>
     <path class="fil0 str0" d="M13 30l-1 0c-1,0 -1,1 -1,1 0,1 0,1 1,1l1 0c0,0 0,0 0,-1 0,0 0,-1 0,-1z"/>
    </g>
   </g>
   <g>
    <g>
     <path class="fil0 str0" d="M24 38l0 0c-1,0 -1,0 -1,1 0,0 0,1 1,1l0 0c1,0 1,-1 1,-1 0,-1 0,-1 -1,-1z"/>
    </g>
   </g>
   <g>
    <g>
     <path class="fil0 str0" d="M5 35l0 0c-1,0 -1,0 -1,1 0,0 0,1 1,1l0 0c1,0 1,-1 1,-1 0,-1 0,-1 -1,-1z"/>
    </g>
   </g>
   <g>
    <g>
     <path class="fil0 str0" d="M5 38l0 0c-1,0 -1,0 -1,1 0,0 0,1 1,1l0 0c1,0 1,-1 1,-1 0,-1 0,-1 -1,-1z"/>
    </g>
   </g>
   <g>
    <g>
     <path class="fil0 str0" d="M18 33l-1 0c-1,0 -1,1 -1,1 0,1 0,1 1,1l1 0c0,0 0,0 0,-1 0,0 0,-1 0,-1z"/>
    </g>
   </g>
   <g>
    <g>
     <path class="fil0 str0" d="M18 30l-1 0c-1,0 -1,1 -1,1 0,1 0,1 1,1l1 0c0,0 0,0 0,-1 0,0 0,-1 0,-1z"/>
    </g>
   </g>
   <g>
    <g>
     <path class="fil0 str0" d="M54 49l-1 0c-1,0 -1,1 -1,1 0,1 0,1 1,1l1 0c0,0 0,0 0,-1 0,0 0,-1 0,-1z"/>
    </g>
   </g>
   <g>
    <g>
     <path class="fil0 str0" d="M42 48l-1 0c-1,0 -1,0 -1,1 0,0 0,0 1,0l1 0c0,0 0,0 0,0 0,-1 0,-1 0,-1z"/>
    </g>
   </g>
   <g>
    <g>
     <path class="fil0 str0" d="M42 45l-1 0c-1,0 -1,0 -1,0 0,1 0,1 1,1l1 0c0,0 0,0 0,-1 0,0 0,0 0,0z"/>
    </g>
   </g>
   <g>
    <g>
     <path class="fil0 str0" d="M54 52l-1 0c-1,0 -1,1 -1,1 0,1 0,1 1,1l1 0c0,0 0,0 0,-1 0,0 0,-1 0,-1z"/>
    </g>
   </g>
   <g>
    <g>
     <path class="fil0 str0" d="M34 49l0 0c-1,0 -1,1 -1,1 0,1 0,1 1,1l0 0c1,0 1,0 1,-1 0,0 0,-1 -1,-1z"/>
    </g>
   </g>
   <g>
    <g>
     <path class="fil0 str0" d="M34 52l0 0c-1,0 -1,1 -1,1 0,1 0,1 1,1l0 0c1,0 1,0 1,-1 0,0 0,-1 -1,-1z"/>
    </g>
   </g>
   <g>
    <g>
     <path class="fil0 str0" d="M47 48l-1 0c-1,0 -1,0 -1,1 0,0 0,0 1,0l1 0c0,0 0,0 0,0 0,-1 0,-1 0,-1z"/>
    </g>
   </g>
   <g>
    <g>
     <path class="fil0 str0" d="M47 45l-1 0c-1,0 -1,0 -1,0 0,1 0,1 1,1l1 0c0,0 0,0 0,-1 0,0 0,0 0,0z"/>
    </g>
   </g>
  </g>
  <rect class="fil1" width="58.0807" height="58.0807"/>
 </g>
</svg>
