<?xml version="1.0" encoding="UTF-8"?>
<!DOCTYPE svg PUBLIC "-//W3C//DTD SVG 1.1//EN" "http://www.w3.org/Graphics/SVG/1.1/DTD/svg11.dtd">
<!-- Creator: CorelDRAW X7 -->
<svg xmlns="http://www.w3.org/2000/svg" xml:space="preserve" width="10.2726mm" height="10.2728mm" version="1.1" style="shape-rendering:geometricPrecision; text-rendering:geometricPrecision; image-rendering:optimizeQuality; fill-rule:evenodd; clip-rule:evenodd"
viewBox="0 0 302 302"
 xmlns:xlink="http://www.w3.org/1999/xlink"
 enable-background="new 0 0 2000 2000">
 <defs>
  <style type="text/css">
   <![CDATA[
    .fil0 {fill:none}
    .fil1 {fill:#3D8729}
   ]]>
  </style>
 </defs>
 <g id="Capa_x0020_1">
  <metadata id="CorelCorpID_0Corel-Layer"/>
  <rect class="fil0" width="302" height="302"/>
  <g id="_1407754374480">
   <path class="fil1" d="M157 127c17,0 32,-6 45,-18 12,-13 18,-28 18,-45 0,-18 -6,-33 -18,-45 -13,-13 -28,-19 -45,-19 -18,0 -33,6 -45,19 -12,12 -19,27 -19,45 0,17 7,32 19,45 12,12 27,18 45,18zm-34 -97c9,-10 20,-15 34,-15 13,0 24,5 34,15 9,9 14,20 14,34 0,13 -5,24 -14,34 -10,9 -21,14 -34,14 -14,0 -25,-5 -34,-14 -10,-10 -14,-21 -14,-34 0,-14 4,-25 14,-34z"/>
   <g>
    <g>
     <path class="fil1" d="M162 302l-94 0 0 -6c0,-1 0,-88 -1,-123 0,-8 0,-15 2,-21 1,-6 3,-10 6,-14 6,-6 12,-8 15,-9 1,0 1,0 1,0l3 -1 3 2c17,13 44,16 54,16 10,0 37,-3 55,-16l2 -2 3 1c0,0 0,0 1,0 3,1 9,3 15,9 3,4 5,8 6,14 2,6 2,13 2,21 -1,35 -1,122 -1,123l0 6 -72 0zm-81 -12l59 0 0 0 82 0c0,-21 0,-88 1,-118 0,-12 -2,-21 -6,-26 -2,-3 -5,-4 -7,-5 -5,4 -11,7 -19,10 -6,2 -13,4 -21,5 -6,1 -11,2 -15,2l0 1 0 0 -8 0 0 -1c-4,0 -9,-1 -15,-2 -8,-1 -15,-3 -21,-5 -7,-3 -14,-6 -19,-10 -2,1 -5,2 -7,5 -4,5 -6,14 -6,26 1,30 2,97 2,118z"/>
    </g>
   </g>
  </g>
 </g>
</svg>
