<?xml version="1.0" encoding="UTF-8"?>
<!DOCTYPE svg PUBLIC "-//W3C//DTD SVG 1.1//EN" "http://www.w3.org/Graphics/SVG/1.1/DTD/svg11.dtd">
<!-- Creator: CorelDRAW X7 -->
<svg xmlns="http://www.w3.org/2000/svg" xml:space="preserve" width="10.2726mm" height="10.2728mm" version="1.1" style="shape-rendering:geometricPrecision; text-rendering:geometricPrecision; image-rendering:optimizeQuality; fill-rule:evenodd; clip-rule:evenodd"
viewBox="0 0 127 127"
 xmlns:xlink="http://www.w3.org/1999/xlink"
 enable-background="new 0 0 2000 2000">
 <defs>
  <style type="text/css">
   <![CDATA[
    .fil0 {fill:none}
    .fil1 {fill:#3D8729}
   ]]>
  </style>
 </defs>
 <g id="Capa_x0020_1">
  <metadata id="CorelCorpID_0Corel-Layer"/>
  <rect class="fil0" width="127" height="127"/>
  <g id="_1407715479984">
   <g>
    <g>
     <path class="fil1" d="M126 100l-3 -2c0,0 0,0 0,-1l1 -3c1,0 1,-1 0,-2 -1,-1 -2,-3 -3,-4 0,-1 -1,-1 -2,-1l-3 1c0,0 -1,0 -1,-1l0 -3c0,-1 -1,-1 -1,-2 -2,0 -4,-1 -5,-1 -1,0 -2,0 -2,0l-2 3 -2 0 -2 -3c0,0 -1,0 -2,0 -1,0 -3,1 -5,1 0,1 -1,1 -1,2l0 3c0,1 -1,1 -1,1l-3 -1c-1,0 -2,0 -2,1 -1,1 -2,3 -3,4 -1,1 -1,2 0,2l1 3c0,1 0,1 0,1l-3 2c-1,0 -1,1 -1,2l0 4c0,1 0,2 1,2l3 2c0,0 0,0 0,1l-1 3c-1,0 -1,1 0,2 1,1 2,3 3,4 0,1 1,1 2,1l3 -1c0,0 1,0 1,1l0 3c0,1 1,1 1,2 2,0 4,1 5,1 1,0 2,0 2,0l2 -3 2 0 2 3c0,0 1,0 1,0 0,0 1,0 1,0 1,0 3,-1 5,-1 0,-1 1,-1 1,-2l0 -3c0,-1 1,-1 1,-1l3 1c1,0 2,0 2,-1 1,-1 2,-3 3,-4 1,-1 1,-2 0,-2l-1 -3c0,-1 0,-1 0,-1l3 -2c1,0 1,-1 1,-2l0 -4c0,-1 0,-2 -1,-2zm-6 6c0,0 -1,1 -1,2 0,0 0,1 -1,2 0,1 0,1 0,2l2 3c0,0 -1,1 -1,1l-3 0c-1,-1 -1,0 -2,0 -1,1 -1,1 -2,2 -1,0 -1,1 -1,1l0 3c-1,0 -1,1 -2,1l-2 -2c0,-1 -1,-1 -1,-1l-3 0c-1,0 -2,0 -2,1l-2 2c-1,0 -1,-1 -2,-1l0 -3c0,0 0,-1 -1,-1 -1,-1 -1,-1 -2,-2 -1,0 -1,-1 -2,0l-3 0c0,0 -1,-1 -1,-1l2 -3c0,-1 0,-1 0,-2 -1,-1 -1,-2 -1,-2 0,-1 -1,-2 -1,-2l-3 -1 0 -2 3 -1c0,0 1,-1 1,-2 0,-1 0,-1 1,-2 0,-1 0,-2 0,-2l-2 -3c0,0 1,-1 1,-1l3 0c1,1 1,0 2,0 1,-1 1,-1 2,-2 1,0 1,-1 1,-1l0 -3c1,-1 1,-1 2,-1l2 2c0,1 1,1 2,1l3 0c0,0 1,0 1,-1l2 -2c1,0 1,0 2,1l0 3c0,0 0,1 1,1 1,1 1,1 2,2 1,0 1,1 2,0l3 0c0,0 1,1 1,1l-2 3c0,0 0,1 0,2 1,1 1,1 1,2 0,1 1,2 1,2l3 1 0 2 -3 1z"/>
    </g>
   </g>
   <g>
    <g>
     <path class="fil1" d="M104 93c-6,0 -11,5 -11,11 0,6 5,11 11,11 6,0 11,-5 11,-11 0,-6 -5,-11 -11,-11zm0 17c-3,0 -6,-3 -6,-6 0,-4 3,-6 6,-6 4,0 6,2 6,6 0,3 -2,6 -6,6z"/>
    </g>
   </g>
   <g>
    <g>
     <path class="fil1" d="M59 9c-17,0 -31,14 -31,31 0,18 14,32 31,32 18,0 32,-14 32,-32 0,-17 -14,-31 -32,-31zm-26 39c-4,-14 4,-30 19,-34 2,-1 5,-1 7,-1 3,0 6,0 8,1 0,0 -1,1 -1,1 -1,1 -1,1 -1,2l1 3c0,1 -1,1 -1,1l-3 -1c-1,0 -2,1 -2,1 -2,2 -3,5 -4,7 -1,1 0,2 0,2l3 2c-1,1 -1,1 -1,2l-3 1c-1,0 -2,1 -2,2l0 7c0,1 1,2 2,2l3 1c0,0 0,1 1,1l-3 2c0,1 -1,2 0,3 1,2 2,4 4,6 0,1 1,1 2,1l3 -1c0,1 1,1 1,1l-1 3c0,1 0,2 1,3 0,0 1,0 1,1 -14,4 -30,-4 -34,-19zm39 17c-1,-1 -2,-1 -2,-2l0 -3c1,0 1,-1 0,-2 -1,-1 -2,-2 -3,-3 0,0 -1,0 -2,0l-3 1c-1,-1 -1,-2 -2,-3l2 -2c1,-1 1,-2 1,-3 0,-1 -1,-2 -1,-3 0,-1 -1,-2 -2,-2l-2 -1 0 -4 2 0c1,0 2,-1 2,-2 0,-1 1,-2 1,-4 0,0 0,-1 -1,-2l-2 -2c1,-1 1,-2 2,-3l3 1c1,0 2,0 2,-1 1,-1 2,-2 3,-2 1,-1 1,-2 0,-3l0 -3c0,0 1,-1 2,-1 3,1 6,4 8,6 -10,3 -16,13 -14,23 2,7 7,12 14,14 -2,2 -5,4 -8,6zm-2 -27c1,-6 6,-11 13,-12 5,9 5,20 0,29 -8,-1 -14,-9 -13,-17z"/>
    </g>
   </g>
   <g>
    <g>
     <path class="fil1" d="M115 36l-2 -1c0,0 0,0 0,-1l1 -2c0,-1 0,-2 0,-2 -1,-2 -2,-3 -3,-4 0,-1 -1,-1 -2,-1l-3 1c0,0 0,-1 0,-1l0 -3c-1,0 -1,-1 -2,-1 -1,-1 -3,-1 -4,-2 -1,0 -2,0 -2,1l-3 2c-9,-20 -34,-28 -53,-18 -20,10 -29,34 -19,54 1,1 2,2 2,4l-5 7c-1,0 -1,1 -1,1 0,1 1,1 1,2l5 3 -24 30c-1,1 -1,2 0,3 0,0 0,0 0,0l10 8c1,1 3,1 3,0l25 -30 4 3c1,0 3,0 3,-1l7 -8c17,3 35,-6 42,-22l3 3c0,0 1,1 1,1 1,0 1,0 1,0 1,-1 3,-1 4,-2 1,0 1,-1 2,-2l0 -3c0,0 0,0 0,0l3 1c1,0 2,-1 2,-1 1,-1 2,-3 3,-4 0,-1 0,-1 0,-2l-1 -3c0,0 0,0 0,0l2 -2c1,0 2,-1 2,-1l0 -5c0,-1 -1,-1 -2,-2zm-102 76l-8 -6 23 -28 8 5 -23 29zm31 -28l-4 -3 0 0 -16 -11 4 -5c5,7 12,12 20,14l-4 5zm15 -8c-19,0 -36,-16 -36,-36 0,-20 17,-36 36,-36 20,0 37,16 37,36 0,20 -17,36 -37,36zm53 -35l-2 1c0,0 -1,1 -1,2 0,0 0,1 -1,2 0,0 0,1 0,2l2 2c-1,0 -1,1 -1,1l-3 0c0,-1 -1,0 -1,0 -1,1 -2,1 -2,1 -1,1 -1,1 -1,2l-1 3c0,0 0,0 -1,0l-3 -3c4,-9 4,-19 0,-27l3 -3c1,0 1,0 1,0l1 3c0,0 0,1 1,1 0,1 1,1 2,2 0,0 1,0 1,0l3 0c0,0 0,0 1,1l-2 2c0,1 0,1 0,2 1,1 1,1 1,2 0,1 1,1 1,2l2 1 0 1 0 0 0 0z"/>
    </g>
   </g>
  </g>
 </g>
</svg>
