<?xml version="1.0" encoding="UTF-8"?>
<!DOCTYPE svg PUBLIC "-//W3C//DTD SVG 1.1//EN" "http://www.w3.org/Graphics/SVG/1.1/DTD/svg11.dtd">
<!-- Creator: CorelDRAW X7 -->
<svg xmlns="http://www.w3.org/2000/svg" xml:space="preserve" width="10.2726mm" height="10.2726mm" version="1.1" style="shape-rendering:geometricPrecision; text-rendering:geometricPrecision; image-rendering:optimizeQuality; fill-rule:evenodd; clip-rule:evenodd"
viewBox="0 0 369 369"
 xmlns:xlink="http://www.w3.org/1999/xlink"
 enable-background="new 0 0 2000 2000">
 <defs>
  <style type="text/css">
   <![CDATA[
    .fil1 {fill:none}
    .fil0 {fill:#3D8729}
   ]]>
  </style>
 </defs>
 <g id="Capa_x0020_1">
  <metadata id="CorelCorpID_0Corel-Layer"/>
  <g id="_1407753468704">
   <g>
    <g>
     <path class="fil0" d="M149 258c-1,0 -2,0 -3,0l0 -37c0,-4 -3,-7 -7,-7l-29 0c-2,0 -5,1 -6,3 -1,1 -2,4 -1,6 1,2 1,4 1,6 0,11 -8,19 -19,19 -10,0 -19,-8 -19,-19 0,-2 1,-4 1,-6 1,-2 1,-5 -1,-6 -1,-2 -3,-3 -6,-3l-28 0c-4,0 -8,3 -8,7l0 141c0,4 4,7 8,7l30 0c4,0 7,-3 7,-7 0,-4 -3,-7 -7,-7l-23 0 0 -127 13 0c0,0 0,1 0,1 0,19 15,34 33,34 19,0 34,-15 34,-34 0,0 0,-1 0,-1l12 0 0 39c0,3 2,5 4,6 2,2 4,2 7,1 2,-1 4,-2 7,-2 11,0 19,9 19,19 0,11 -8,19 -19,19 -3,0 -5,0 -7,-1 -3,-1 -5,-1 -7,0 -2,2 -4,4 -4,6l0 40 -12 0c-4,0 -8,3 -8,7 0,4 4,7 8,7l20 0c4,0 7,-3 7,-7l0 -37c1,0 2,0 3,0 19,0 33,-15 33,-34 0,-18 -14,-33 -33,-33z"/>
    </g>
   </g>
   <g>
    <g>
     <path class="fil0" d="M83 355l0 0c-4,0 -8,3 -8,7 0,4 4,7 8,7l0 0c4,0 7,-3 7,-7 0,-4 -3,-7 -7,-7z"/>
    </g>
   </g>
   <g>
    <g>
     <path class="fil0" d="M287 0l-1 0c-3,0 -7,3 -7,7 0,4 4,7 7,7l1 0c4,0 7,-3 7,-7 0,-4 -3,-7 -7,-7z"/>
    </g>
   </g>
   <g>
    <g>
     <path class="fil0" d="M338 0l-30 0c-4,0 -7,3 -7,7 0,4 3,7 7,7l22 0 0 127 -12 0c0,0 0,0 0,-1 0,-18 -15,-33 -34,-33 -18,0 -33,15 -33,33 0,1 0,1 0,1l-13 0 0 -39c0,-2 -1,-5 -3,-6 -2,-1 -5,-2 -7,-1 -3,1 -5,2 -8,2 -10,0 -19,-9 -19,-19 0,-11 9,-19 19,-19 3,0 5,0 8,2 2,0 5,0 7,-1 2,-1 3,-4 3,-6l0 -40 13 0c4,0 7,-3 7,-7 0,-4 -3,-7 -7,-7l-20 0 -107 0c-4,0 -8,3 -8,7l0 142c0,4 4,7 8,7l20 0c0,0 0,1 0,1 0,19 15,34 33,34 19,0 34,-15 34,-34 0,0 0,-1 0,-1l12 0 0 39c0,3 2,5 4,6 2,2 4,2 7,1 2,-1 4,-2 7,-2 11,0 19,9 19,19 0,11 -8,19 -19,19 -3,0 -5,0 -7,-1 -3,-1 -5,-1 -7,0 -2,2 -4,4 -4,6l0 47c0,4 4,7 8,7l107 0c4,0 7,-3 7,-7l0 -141 0 -142c0,-4 -3,-7 -7,-7zm-115 141l-21 0c-2,0 -5,2 -6,3 -1,2 -2,5 -1,7 1,2 1,4 1,6 0,11 -8,19 -19,19 -10,0 -19,-8 -19,-19 0,-2 1,-4 1,-6 1,-2 1,-5 -1,-7 -1,-1 -3,-3 -6,-3l-21 0 0 -127 92 0 0 31c-1,0 -2,0 -3,0 -18,0 -33,15 -33,33 0,18 15,33 33,33 1,0 2,0 3,0l0 30 0 0zm107 142l-92 0 0 -30c1,0 2,0 3,0 19,0 34,-15 34,-34 0,-18 -15,-33 -34,-33 -1,0 -2,0 -3,0l0 -30 21 0c3,0 5,-1 6,-3 2,-2 2,-4 1,-7 0,-2 -1,-4 -1,-6 0,-10 9,-19 19,-19 11,0 19,9 19,19 0,2 0,4 -1,6 -1,3 0,5 1,7 1,2 4,3 6,3l21 0 0 127z"/>
    </g>
   </g>
  </g>
  <rect class="fil1" width="369" height="369"/>
 </g>
</svg>
