<?xml version="1.0" encoding="UTF-8"?>
<!DOCTYPE svg PUBLIC "-//W3C//DTD SVG 1.1//EN" "http://www.w3.org/Graphics/SVG/1.1/DTD/svg11.dtd">
<!-- Creator: CorelDRAW X7 -->
<svg xmlns="http://www.w3.org/2000/svg" xml:space="preserve" width="10.2726mm" height="10.2726mm" version="1.1" style="shape-rendering:geometricPrecision; text-rendering:geometricPrecision; image-rendering:optimizeQuality; fill-rule:evenodd; clip-rule:evenodd"
viewBox="0 0 58 58"
 xmlns:xlink="http://www.w3.org/1999/xlink">
 <defs>
  <style type="text/css">
   <![CDATA[
    .fil0 {fill:none}
    .fil1 {fill:#43B036}
   ]]>
  </style>
 </defs>
 <g id="Capa_x0020_1">
  <metadata id="CorelCorpID_0Corel-Layer"/>
  <rect class="fil0" width="58.0807" height="58.0807"/>
  <g id="_1407715487312">
   <path class="fil1" d="M48 28l0 21 -6 0c0,0 -1,1 -1,1l0 6 -37 0 0 -54 44 0 0 13 2 0 0 -14c0,-1 0,-1 -1,-1l-46 0c-1,0 -1,0 -1,1l0 56c0,1 0,1 1,1l39 0c1,0 1,0 1,0l7 -7c0,0 0,0 0,0 0,0 0,0 0,0 0,0 0,-1 0,-1 0,0 0,0 0,0l0 -22 -2 0zm-5 27l0 -4 4 0 -4 4z"/>
   <path class="fil1" d="M56 16c-2,-1 -4,-1 -5,0l-19 16c0,0 0,1 0,1l0 3c0,0 1,1 1,1l3 0c1,0 1,0 1,-1l19 -16c1,-1 1,-3 0,-4zm-20 19l-2 0 0 -2 13 -11 2 1 -13 12zm15 -13l-2 -2 1 -1 2 2 -1 1zm3 -3l-1 1 -1 -2 0 -1c1,0 2,0 2,0 1,1 1,1 0,2z"/>
   <path class="fil1" d="M10 12c-2,0 -4,2 -4,5 0,2 2,4 4,4 2,0 4,-2 4,-4 0,-3 -2,-5 -4,-5zm0 7c-1,0 -2,-1 -2,-2 0,-1 1,-2 2,-2 1,0 2,1 2,2 0,1 -1,2 -2,2z"/>
   <polygon class="fil1" points="31,6 29,5 27,6 24,5 23,6 25,8 23,10 24,11 27,9 29,11 31,10 28,8 "/>
   <path class="fil1" d="M41 12c-3,0 -4,2 -4,4 0,2 1,4 4,4 2,0 3,-2 3,-4 0,-2 -1,-4 -3,-4zm0 6c-2,0 -2,-1 -2,-2 0,-1 0,-2 2,-2 1,0 1,1 1,2 0,1 0,2 -1,2z"/>
   <path class="fil1" d="M15 41c-3,0 -4,2 -4,3 0,2 1,3 4,3 2,0 3,-1 3,-3 0,-1 -1,-3 -3,-3zm0 5c-2,0 -2,-1 -2,-2 0,-1 0,-1 2,-1 1,0 1,0 1,1 0,1 0,2 -1,2z"/>
   <polygon class="fil1" points="20,28 18,28 16,29 14,28 12,28 15,30 12,31 14,32 16,31 18,32 20,31 18,30 "/>
   <polygon class="fil1" points="46,40 44,38 42,41 40,38 38,40 41,42 38,44 40,46 42,43 44,46 46,44 43,42 "/>
   <path class="fil1" d="M21 20l2 0 0 -2 -4 0c0,0 -1,1 -1,1l0 4 2 0 0 -1c4,5 4,13 -1,18l2 1c5,-6 5,-15 0,-21z"/>
   <path class="fil1" d="M27 44c-2,0 -4,2 -4,5 0,2 2,4 4,4 2,0 4,-2 4,-4 0,-3 -2,-5 -4,-5zm0 7c-1,0 -2,-1 -2,-2 0,-1 1,-2 2,-2 1,0 2,1 2,2 0,1 -1,2 -2,2z"/>
   <path class="fil1" d="M33 14l-3 -3 -1 1 1 1 -12 0 0 3 12 0 -1 1 1 1 3 -3c1,0 1,-1 0,-1z"/>
   <path class="fil1" d="M36 20l-5 0 0 2 2 0c-6,5 -9,11 -9,18l0 3 3 0 0 -3c0,-6 2,-12 7,-17l0 2 3 0 0 -4c0,-1 -1,-1 -1,-1z"/>
  </g>
 </g>
</svg>
