<?xml version="1.0" encoding="UTF-8"?>
<!DOCTYPE svg PUBLIC "-//W3C//DTD SVG 1.1//EN" "http://www.w3.org/Graphics/SVG/1.1/DTD/svg11.dtd">
<!-- Creator: CorelDRAW X7 -->
<svg xmlns="http://www.w3.org/2000/svg" xml:space="preserve" width="10.2874mm" height="10.2746mm" version="1.1" style="shape-rendering:geometricPrecision; text-rendering:geometricPrecision; image-rendering:optimizeQuality; fill-rule:evenodd; clip-rule:evenodd"
viewBox="0 0 81 81"
 xmlns:xlink="http://www.w3.org/1999/xlink">
 <defs>
  <style type="text/css">
   <![CDATA[
    .fil0 {fill:none}
    .fil1 {fill:#43B036}
   ]]>
  </style>
 </defs>
 <g id="Capa_x0020_1">
  <metadata id="CorelCorpID_0Corel-Layer"/>
  <g id="_1407754148880">
   <rect class="fil0" width="81.2016" height="81.2016"/>
   <g id="_2609935629232">
    <path class="fil1" d="M3 74l2 0 0 -4c0,-1 0,-2 1,-2 1,0 1,1 1,2l0 4 5 0 0 -15c0,0 0,0 -1,0 -2,0 -4,-3 -2,-6l9 -9c4,-3 9,-3 12,0l9 9c2,3 0,7 -3,6l0 15 37 0 0 -35 -4 0c-1,0 -2,0 -2,-1 0,-1 1,-1 2,-1l4 0 0 -2c-6,0 -56,0 -66,0l0 2 56 0c1,0 1,0 1,1 0,1 0,1 -1,1l-56 0 0 25c0,1 0,1 -1,1 -1,0 -1,0 -1,-1 0,-1 0,-28 0,-29l-1 0c-1,0 -1,-1 -1,-1 0,-1 0,-1 1,-1 1,0 38,0 41,0 0,-3 0,-4 0,-6 0,-1 0,-1 1,-1 0,0 1,0 1,1l0 1 6 0 0 -8 -6 0 0 1c0,1 -1,1 -1,1 -1,0 -1,0 -1,-1l0 -2c-2,0 -3,-2 -3,-4 1,-1 2,-2 4,-2l8 0c1,0 3,1 3,2 0,0 0,0 0,0 0,0 0,0 0,0 0,1 0,1 0,1 0,0 0,0 0,0 0,0 0,0 0,0 0,0 0,0 0,0 0,0 0,0 0,0 0,1 -1,3 -2,3 0,3 0,11 0,14l7 0c0,-3 0,-11 0,-14 -1,0 -2,-2 -2,-3 0,0 0,0 0,0 0,0 0,0 0,0 0,0 0,0 0,0 0,0 0,0 0,0 0,0 0,0 0,-1 0,0 0,0 0,0 0,0 0,0 0,0 0,-1 2,-2 3,-2l8 0c2,0 4,1 4,3 0,1 -1,3 -2,3 0,3 0,11 0,14 1,0 2,0 3,0 1,0 2,0 2,1 0,0 -1,1 -2,1l-1 0c0,1 0,38 0,39l3 0c1,0 3,1 3,3 1,2 -1,4 -3,4l-75 0c-1,0 -3,-1 -3,-3 0,-2 2,-4 3,-4l0 0zm44 -44l0 3 6 0 0 -3 -6 0zm8 -14c0,0 0,0 0,0 0,0 0,0 0,0 0,0 0,-1 -1,-1l-8 0c-1,0 -1,0 -1,1 0,0 0,1 1,1l8 0c0,0 1,0 1,-1 0,0 0,0 0,0zm9 17l6 0 0 -3 -6 0 0 3zm0 -5l6 0 0 -8 -6 0 0 8zm8 -12c0,0 0,-1 -1,-1l-8 0c0,0 -1,0 -1,1 0,0 0,0 0,0 0,1 1,1 1,1l8 0c1,0 1,0 1,-1 0,0 0,0 0,0zm-36 40c1,1 1,1 1,0 0,-1 0,-1 -9,-10 -2,-3 -6,-3 -8,0 -9,10 -9,9 -9,10 0,1 1,1 1,0 1,-1 9,-8 10,-9 1,-1 2,-1 4,-1 1,1 0,0 10,10l0 0 0 0zm-17 1l10 0c1,0 2,1 2,2l0 3c0,3 0,10 0,12l3 0 0 -16c-10,-10 -9,-10 -10,-10 -1,0 0,0 -9,10l0 16 2 0 0 -3c0,-4 0,-8 0,-12 0,-1 1,-2 2,-2l0 0zm10 13l0 -2 -9 0 0 2 9 0zm-9 2l0 2 9 0 0 -2 -9 0zm9 -6l0 -2 -9 0 0 2 9 0zm0 -5l0 -2 -9 0 0 2 9 0zm-26 18l75 0c1,0 1,-1 1,-1 0,0 0,-1 -1,-1 -16,0 -59,0 -75,0 0,0 -1,0 -1,1 0,0 1,1 1,1l0 0z"/>
    <path class="fil1" d="M42 7c0,-2 2,-3 4,-3 3,0 4,0 8,0 0,0 1,0 1,-1 0,0 -1,-1 -1,-1l-8 0c-1,0 -2,0 -2,-1 0,0 1,-1 2,-1l8 0c2,0 3,1 4,3 0,2 -2,4 -4,4 -3,0 -4,0 -5,0 0,0 0,0 0,0 0,0 -1,0 -3,0 -1,0 -1,0 -2,1 0,0 1,1 2,1l2 0c3,0 4,4 1,4 0,0 -1,-1 -1,-2 0,0 0,0 0,0l-2 0c-3,0 -5,-2 -4,-4z"/>
    <path class="fil1" d="M58 7c0,-2 2,-3 4,-3 4,0 4,0 8,0 1,0 1,0 1,-1 0,0 0,-1 -1,-1l-8 0c-1,0 -2,0 -2,-1 0,0 1,-1 2,-1l8 0c2,0 4,2 4,3 0,2 -2,4 -4,4 -3,0 -5,0 -8,0 -1,0 -1,0 -1,1 -1,0 0,1 1,1l2 0c3,0 4,4 2,4 -1,0 -1,-1 -1,-2 0,0 -1,0 -1,0l-2 0c-3,0 -5,-2 -4,-4l0 0z"/>
   </g>
  </g>
  <rect class="fil0" width="81.1067" height="81.1067"/>
 </g>
</svg>
