<?xml version="1.0" encoding="UTF-8"?>
<!DOCTYPE svg PUBLIC "-//W3C//DTD SVG 1.1//EN" "http://www.w3.org/Graphics/SVG/1.1/DTD/svg11.dtd">
<!-- Creator: CorelDRAW X7 -->
<svg xmlns="http://www.w3.org/2000/svg" xml:space="preserve" width="10.2726mm" height="10.2726mm" version="1.1" style="shape-rendering:geometricPrecision; text-rendering:geometricPrecision; image-rendering:optimizeQuality; fill-rule:evenodd; clip-rule:evenodd"
viewBox="0 0 127 127"
 xmlns:xlink="http://www.w3.org/1999/xlink">
 <defs>
  <style type="text/css">
   <![CDATA[
    .fil1 {fill:none}
    .fil0 {fill:#43B036}
   ]]>
  </style>
 </defs>
 <g id="Capa_x0020_1">
  <metadata id="CorelCorpID_0Corel-Layer"/>
  <g id="_1407751371008">
   <path class="fil0" d="M102 68c-3,0 -5,1 -7,3 -1,-2 -3,-3 -6,-3 -2,0 -5,1 -6,3 -2,-2 -4,-3 -7,-3 -1,0 -3,0 -4,1l0 -7c0,0 1,0 1,0 0,0 0,0 1,0 0,0 1,0 1,-1 1,0 1,0 1,0 1,0 1,0 2,-1 0,0 0,0 0,0 3,-1 6,-3 8,-6 0,0 0,0 0,0 6,-6 9,-14 9,-22 0,-9 -3,-17 -9,-23 -7,-6 -15,-9 -24,-9 -16,1 -28,13 -30,29 -1,9 3,19 9,25 0,0 0,0 0,0 0,0 0,1 1,1 0,0 0,0 0,0 0,0 1,1 1,1 1,1 1,1 1,1 1,0 1,1 2,1 0,0 0,0 0,0 1,1 2,1 2,2 1,0 1,0 1,0 1,0 1,1 2,1 0,0 0,0 1,0 0,1 1,1 1,1 1,0 1,0 1,0 1,0 1,0 1,0l0 33 -7 -7c-2,-2 -4,-3 -7,-3 -5,0 -9,4 -9,9 0,3 1,5 3,7l20 21 0 3c0,1 1,2 2,2l49 0c1,0 2,-1 2,-2l0 -8 2 -4c0,0 0,0 0,-1l0 -36c0,-4 -3,-8 -8,-8zm-61 -20c-3,-5 -5,-12 -5,-19 2,-13 13,-24 26,-25 8,0 15,3 21,8 5,5 8,12 8,20 0,6 -2,11 -5,16 -2,-6 -7,-11 -13,-14 2,-2 3,-5 3,-9 0,-7 -5,-12 -12,-12 -7,0 -13,5 -13,12 0,4 1,7 3,9 -6,3 -11,8 -13,14zm31 -23c0,4 -2,6 -4,8 0,0 0,0 0,0 -1,0 -1,0 -2,1 0,0 0,0 0,0 -1,0 -1,0 -1,0 0,0 -1,0 -1,0 0,0 0,0 -1,0 0,0 0,0 -1,0 0,0 0,0 0,0 -1,0 -1,0 -1,0 0,-1 -1,-1 -2,-1 0,0 0,0 0,0 -2,-2 -4,-4 -4,-8 0,-4 4,-8 9,-8 4,0 8,4 8,8zm-17 26l0 7c-1,0 -2,-1 -2,-1 -1,0 -1,0 -1,0 -1,-1 -1,-1 -2,-1 0,0 0,0 -1,-1 0,0 -1,0 -1,-1 -1,0 -1,0 -1,0 -1,-1 -1,-1 -2,-2 0,0 0,0 0,0 1,-7 6,-13 13,-15 2,1 4,1 6,1 2,0 4,0 5,-1 7,2 12,8 13,15 0,0 0,0 0,1 0,0 -1,0 -1,0 -1,1 -2,2 -3,2 0,0 0,0 0,0 0,1 -1,1 -1,1 -1,0 -1,0 -1,1 -1,0 -1,0 -1,0 -1,0 -2,1 -3,1 0,0 0,0 0,0l0 -7c0,-5 -4,-9 -8,-9 -5,0 -9,4 -9,9zm51 61l-2 4c0,0 0,0 0,1l0 6 -45 0 0 -2c0,-1 0,-1 0,-2l-21 -21c-1,-1 -2,-2 -2,-4 0,-2 2,-5 5,-5 2,0 3,1 4,2l11 10c0,1 1,1 2,1 1,-1 1,-1 1,-2l0 -39 0 -10c0,-2 2,-4 5,-4 2,0 4,2 4,4l0 10 0 15 0 13 4 0 0 -13c0,-2 2,-4 4,-4 3,0 5,2 5,4l0 13 4 0 0 -13c0,-2 2,-4 4,-4 2,0 4,2 4,4l0 13 5 0 0 -13c0,-2 2,-4 4,-4 2,0 4,2 4,4l0 36z"/>
   <path class="fil0" d="M22 40c2,-2 3,-5 3,-8 0,-6 -4,-11 -10,-11 -6,0 -11,5 -11,11 0,3 2,6 4,8 -5,2 -8,7 -8,13l0 6c0,2 1,3 2,3l26 0c1,0 2,-1 2,-3l0 -6c0,-6 -4,-11 -8,-13zm-7 -15c3,0 6,3 6,7 0,3 -3,6 -6,6 -4,0 -7,-3 -7,-6 0,-4 3,-7 7,-7zm10 32l-21 0 0 -4c0,-6 5,-11 11,-11 6,0 10,5 10,11l0 4z"/>
   <path class="fil0" d="M119 38c3,-2 4,-5 4,-8 0,-6 -5,-11 -11,-11 -5,0 -10,5 -10,11 0,3 1,6 4,8 -5,2 -8,7 -8,13l0 6c0,1 1,2 2,2l25 0c1,0 2,-1 2,-2l0 -6c0,-6 -3,-11 -8,-13zm-7 -15c4,0 7,3 7,7 0,3 -3,6 -7,6 -3,0 -6,-3 -6,-6 0,-4 3,-7 6,-7zm11 32l-21 0 0 -4c0,-6 5,-11 10,-11 6,0 11,5 11,11l0 4z"/>
  </g>
  <rect class="fil1" width="127" height="127"/>
 </g>
</svg>
