<?xml version="1.0" encoding="UTF-8"?>
<!DOCTYPE svg PUBLIC "-//W3C//DTD SVG 1.1//EN" "http://www.w3.org/Graphics/SVG/1.1/DTD/svg11.dtd">
<!-- Creator: CorelDRAW X7 -->
<svg xmlns="http://www.w3.org/2000/svg" xml:space="preserve" width="10.2747mm" height="10.2747mm" version="1.1" style="shape-rendering:geometricPrecision; text-rendering:geometricPrecision; image-rendering:optimizeQuality; fill-rule:evenodd; clip-rule:evenodd"
viewBox="0 0 147 147"
 xmlns:xlink="http://www.w3.org/1999/xlink">
 <defs>
  <style type="text/css">
   <![CDATA[
    .fil1 {fill:none}
    .fil0 {fill:#43B036}
   ]]>
  </style>
 </defs>
 <g id="Capa_x0020_1">
  <metadata id="CorelCorpID_0Corel-Layer"/>
  <g id="_2609901961808">
   <path class="fil0" d="M73 28c8,0 14,-6 14,-13 0,-8 -6,-14 -14,-14 -7,0 -13,6 -13,14 0,7 6,13 13,13zm0 -20c4,0 7,3 7,7 0,3 -3,6 -7,6 -3,0 -6,-3 -6,-6 0,-4 3,-7 6,-7z"/>
   <path class="fil0" d="M78 30c0,0 0,0 0,0l-9 0c-10,0 -19,8 -19,18 0,0 0,0 0,0l0 3c0,2 2,3 4,3l39 0c2,0 4,-1 4,-3l0 -3c0,-10 -9,-18 -19,-18zm-21 17c0,-5 6,-10 12,-10l9 0c6,0 11,5 12,10l-33 0z"/>
   <path class="fil0" d="M19 86c2,0 4,-1 4,-3 0,-16 7,-30 19,-40 1,-1 1,-3 0,-5 -1,-1 -3,-1 -5,0 -13,11 -21,27 -21,45 0,2 1,3 3,3z"/>
   <path class="fil0" d="M90 131c0,0 0,0 0,0 -11,4 -22,4 -33,0 -1,0 -3,1 -4,2 0,2 0,4 2,4 0,0 0,0 0,0 12,4 25,4 37,0 2,0 3,-2 2,-4 -1,-2 -3,-3 -4,-2z"/>
   <path class="fil0" d="M103 41c13,10 21,25 21,42 0,2 2,3 4,3 2,0 3,-1 3,-3 0,-19 -9,-36 -24,-47 -2,-1 -4,-1 -5,1 -1,1 -1,3 1,4z"/>
   <path class="fil0" d="M23 120c8,0 14,-6 14,-13 0,-8 -6,-14 -14,-14 -7,0 -13,6 -13,14 0,7 6,13 13,13zm0 -20c4,0 7,3 7,7 0,3 -3,6 -7,6 -3,0 -6,-3 -6,-6 0,-4 3,-7 6,-7z"/>
   <path class="fil0" d="M28 122c0,0 0,0 0,0l-9 0c-10,0 -19,8 -19,18l0 0 0 0 0 0 0 0 0 0 0 0 0 3c0,2 2,2 4,2l39 0c2,0 4,-1 4,-2l0 -3c0,-10 -9,-18 -19,-18zm-21 17c0,-5 6,-10 12,-10l9 0c6,0 11,5 12,10l-33 0z"/>
   <path class="fil0" d="M110 107c0,7 6,13 14,13 7,0 13,-6 13,-13 0,-8 -6,-14 -13,-14 -8,0 -14,6 -14,14zm20 0c0,3 -3,6 -6,6 -4,0 -7,-3 -7,-6 0,-4 3,-7 7,-7 3,0 6,3 6,7z"/>
   <path class="fil0" d="M128 122c0,0 0,0 0,0l-9 0c-10,0 -19,8 -19,18 0,0 0,0 0,0l0 3c0,1 2,2 4,2l39 0c2,0 4,-1 4,-2l0 -3c0,-10 -9,-18 -19,-18zm-21 17c1,-5 6,-10 12,-10l9 0c6,0 12,5 12,10l-33 0z"/>
  </g>
  <rect class="fil1" width="147" height="147"/>
 </g>
</svg>
