<?xml version="1.0" encoding="UTF-8"?>
<!DOCTYPE svg PUBLIC "-//W3C//DTD SVG 1.1//EN" "http://www.w3.org/Graphics/SVG/1.1/DTD/svg11.dtd">
<!-- Creator: CorelDRAW X7 -->
<svg xmlns="http://www.w3.org/2000/svg" xml:space="preserve" width="10.2747mm" height="10.2747mm" version="1.1" style="shape-rendering:geometricPrecision; text-rendering:geometricPrecision; image-rendering:optimizeQuality; fill-rule:evenodd; clip-rule:evenodd"
viewBox="0 0 103 103"
 xmlns:xlink="http://www.w3.org/1999/xlink">
 <defs>
  <style type="text/css">
   <![CDATA[
    .fil1 {fill:none}
    .fil0 {fill:#43B036}
   ]]>
  </style>
 </defs>
 <g id="Capa_x0020_1">
  <metadata id="CorelCorpID_0Corel-Layer"/>
  <path class="fil0" d="M100 50l-39 0 0 -9 30 -8c0,0 1,-1 1,-1l10 -17c0,0 0,-1 0,-1 0,-1 0,-1 -1,-2l-17 -9c-1,-1 -1,-1 -2,0l-21 5 0 -4c0,-1 -1,-2 -2,-2l-14 0c-2,0 -2,1 -2,2l0 9 -40 10c-1,1 -2,2 -2,3l7 26c1,1 1,1 1,1 1,1 1,1 1,1 1,0 1,0 1,0l2 -1 -11 11c-1,0 -1,1 -1,1 0,1 0,1 1,2l14 14c0,0 1,0 1,0l26 0 0 18c0,1 0,2 2,2l14 0c1,0 2,-1 2,-2l0 -18 11 0c1,0 2,-1 2,-2 0,-1 -1,-2 -2,-2l-54 0 -12 -12 12 -11 80 0 0 23 -11 0c-1,0 -2,1 -2,2 0,1 1,2 2,2l13 0c1,0 2,-1 2,-2l0 -27c0,-1 -1,-2 -2,-2zm-43 31l0 16 -11 0 0 -16 11 0zm-11 -75l11 0 0 3 -11 3 0 -6zm-38 28l13 -3c1,0 2,-1 1,-2 0,-1 -1,-2 -2,-2l-13 4 -2 -4 78 -21 14 9 -8 14 -77 20 -4 -15zm35 11l0 5 -17 0 17 -5zm3 5l0 -6 11 -2 0 8 -11 0z"/>
  <rect class="fil1" width="103" height="103"/>
 </g>
</svg>
