<?xml version="1.0" encoding="UTF-8"?>
<!DOCTYPE svg PUBLIC "-//W3C//DTD SVG 1.1//EN" "http://www.w3.org/Graphics/SVG/1.1/DTD/svg11.dtd">
<!-- Creator: CorelDRAW X7 -->
<svg xmlns="http://www.w3.org/2000/svg" xml:space="preserve" width="10.2726mm" height="10.2726mm" version="1.1" style="shape-rendering:geometricPrecision; text-rendering:geometricPrecision; image-rendering:optimizeQuality; fill-rule:evenodd; clip-rule:evenodd"
viewBox="0 0 122 122"
 xmlns:xlink="http://www.w3.org/1999/xlink">
 <defs>
  <style type="text/css">
   <![CDATA[
    .fil1 {fill:none}
    .fil0 {fill:#43B036}
   ]]>
  </style>
 </defs>
 <g id="Capa_x0020_1">
  <metadata id="CorelCorpID_0Corel-Layer"/>
  <g id="_1407752676208">
   <g id="_2609934684368">
    <polygon class="fil0" points="33,86 23,86 23,92 33,92 "/>
    <polygon class="fil0" points="38,97 23,97 23,102 38,102 "/>
    <path class="fil0" d="M120 109l-28 -28 0 -63c0,-4 -4,-7 -8,-7l-51 0c-1,-7 -6,-11 -13,-11 -6,0 -11,4 -12,11l-1 0c-4,0 -7,3 -7,7l0 97c0,4 3,7 7,7l77 0c4,0 8,-3 8,-7l0 -12 17 17c1,1 3,2 5,2l0 0 1 0c1,0 3,-1 5,-2 3,-3 3,-8 0,-11l0 0zm-100 -104c4,0 7,2 8,6l-15 0c1,-4 4,-6 7,-6zm66 110c0,1 -1,2 -2,2l-77 0c0,0 -2,-1 -2,-2l0 -97c0,-2 2,-3 2,-3l21 0 0 28c0,2 -1,3 -3,3 -1,0 -2,-1 -2,-3l0 -23 -5 0 0 23c0,4 3,8 7,8 4,0 8,-4 8,-8l0 -28 51 0c1,0 2,1 2,3l0 58 -7 -8 0 -45c0,-2 -1,-3 -2,-3l-39 0 0 5 36 0 0 38 -15 -7c0,0 -1,0 -1,0 -1,0 -1,0 -1,0l0 0 -7 6 -4 -14c0,-1 0,-1 -1,-2 -1,0 -3,0 -3,0l-8 8 -19 0c-1,0 -2,1 -2,2l0 53c0,2 1,3 2,3l62 0c1,0 2,-1 2,-3l0 -19 7 8 0 17zm-19 -46l-3 -5 5 3 -2 2zm7 16l0 22 -56 0 0 -48 18 0c1,0 1,0 1,-1l5 -5 4 14c0,1 0,1 0,1 1,1 3,1 4,0l8 -5 5 12 0 0c0,0 1,0 1,0l10 10 0 0zm-5 -12l4 -4 34 34 -4 4 -34 -34zm47 43c0,1 -3,1 -4,0l-5 -5 4 -4 5 5c1,1 1,4 0,4z"/>
   </g>
   <rect class="fil1" width="122" height="122"/>
  </g>
  <rect class="fil1" width="122" height="122"/>
 </g>
</svg>
