<?xml version="1.0" encoding="UTF-8"?>
<!DOCTYPE svg PUBLIC "-//W3C//DTD SVG 1.1//EN" "http://www.w3.org/Graphics/SVG/1.1/DTD/svg11.dtd">
<!-- Creator: CorelDRAW X7 -->
<svg xmlns="http://www.w3.org/2000/svg" xml:space="preserve" width="10.2748mm" height="10.2748mm" version="1.1" style="shape-rendering:geometricPrecision; text-rendering:geometricPrecision; image-rendering:optimizeQuality; fill-rule:evenodd; clip-rule:evenodd"
viewBox="0 0 536 536"
 xmlns:xlink="http://www.w3.org/1999/xlink">
 <defs>
  <style type="text/css">
   <![CDATA[
    .fil1 {fill:none}
    .fil0 {fill:#43B036}
   ]]>
  </style>
 </defs>
 <g id="Capa_x0020_1">
  <metadata id="CorelCorpID_0Corel-Layer"/>
  <g id="_2609936833904">
   <path class="fil0" d="M127 268l0 177c-19,6 -32,23 -32,44l0 47 346 0 0 -47c0,-21 -13,-38 -32,-44l0 -177c0,-78 -63,-141 -141,-141 -78,0 -141,63 -141,141zm282 237l-282 0 0 -16c0,-9 7,-16 15,-16l252 0c8,0 15,7 15,16l0 16zm-141 -347c61,0 110,49 110,110l0 174 -220 0 0 -174c0,-61 49,-110 110,-110z"/>
   <polygon class="fil0" points="252,221 284,221 284,315 252,315 "/>
   <polygon class="fil0" points="252,347 284,347 284,378 252,378 "/>
   <polygon class="fil0" points="0,252 64,252 64,284 0,284 "/>
   <polygon class="fil0" points="472,252 536,252 536,284 472,284 "/>
   <polygon class="fil0" points="446,68 468,90 423,135 401,113 "/>
   <polygon class="fil0" points="113,135 68,90 90,68 135,113 "/>
   <polygon class="fil0" points="252,0 284,0 284,64 252,64 "/>
  </g>
  <rect class="fil1" width="536" height="536"/>
 </g>
</svg>
