<?xml version="1.0" encoding="UTF-8"?>
<!DOCTYPE svg PUBLIC "-//W3C//DTD SVG 1.1//EN" "http://www.w3.org/Graphics/SVG/1.1/DTD/svg11.dtd">
<!-- Creator: CorelDRAW X7 -->
<svg xmlns="http://www.w3.org/2000/svg" xml:space="preserve" width="10.2747mm" height="10.2747mm" version="1.1" style="shape-rendering:geometricPrecision; text-rendering:geometricPrecision; image-rendering:optimizeQuality; fill-rule:evenodd; clip-rule:evenodd"
viewBox="0 0 255 255"
 xmlns:xlink="http://www.w3.org/1999/xlink"
 enable-background="new 0 0 966 966">
 <defs>
  <style type="text/css">
   <![CDATA[
    .fil1 {fill:none}
    .fil0 {fill:#3D8729}
   ]]>
  </style>
 </defs>
 <g id="Capa_x0020_1">
  <metadata id="CorelCorpID_0Corel-Layer"/>
  <g id="_2609901945968">
   <path class="fil0" d="M21 226l106 0 0 -8 -106 0c-7,0 -13,-6 -13,-13l0 -180c0,-7 6,-13 13,-13l180 0c7,0 12,6 12,13l0 94 9 0 0 -94c0,-12 -9,-21 -21,-21l-180 0c-12,0 -21,9 -21,21l0 180c0,12 9,21 21,21z"/>
   <polygon class="fil0" points="16,21 25,21 25,29 16,29 "/>
   <polygon class="fil0" points="33,21 41,21 41,29 33,29 "/>
   <polygon class="fil0" points="49,21 57,21 57,29 49,29 "/>
   <polygon class="fil0" points="16,37 205,37 205,45 16,45 "/>
   <path class="fil0" d="M59 55l-11 10c-9,-6 -20,-4 -27,4 -7,8 -6,20 1,28 8,7 20,8 28,1 8,-7 10,-18 4,-27l10 -11 -5 -5zm-22 39c-7,0 -12,-5 -12,-12 0,-7 5,-12 12,-12 2,0 4,0 5,1l-8 8 6 6 8 -8c1,1 1,3 1,5 0,7 -5,12 -12,12z"/>
   <polygon class="fil0" points="70,70 140,70 140,78 70,78 "/>
   <polygon class="fil0" points="70,86 99,86 99,94 70,94 "/>
   <polygon class="fil0" points="107,86 164,86 164,94 107,94 "/>
   <polygon class="fil0" points="148,70 189,70 189,78 148,78 "/>
   <path class="fil0" d="M59 104l-11 10c-9,-6 -20,-4 -27,4 -7,9 -6,21 1,28 8,7 20,8 28,1 8,-6 10,-18 4,-27l10 -10 -5 -6zm-22 40c-7,0 -12,-6 -12,-13 0,-6 5,-12 12,-12 2,0 4,0 5,1l-8 8 6 6 8 -8c1,2 1,4 1,5 0,7 -5,13 -12,13z"/>
   <polygon class="fil0" points="70,119 140,119 140,127 70,127 "/>
   <polygon class="fil0" points="70,135 99,135 99,144 70,144 "/>
   <polygon class="fil0" points="107,135 140,135 140,144 107,144 "/>
   <polygon class="fil0" points="148,119 164,119 164,127 148,127 "/>
   <path class="fil0" d="M59 153l-11 11c-9,-6 -20,-5 -27,4 -7,8 -6,20 1,27 8,8 20,8 28,2 8,-7 10,-19 4,-28l10 -10 -5 -6zm-22 40c-7,0 -12,-6 -12,-12 0,-7 5,-13 12,-13 2,0 4,1 5,2l-8 8 6 6 8 -9c1,2 1,4 1,6 0,6 -5,12 -12,12z"/>
   <polygon class="fil0" points="70,168 123,168 123,177 70,177 "/>
   <polygon class="fil0" points="70,185 99,185 99,193 70,193 "/>
   <polygon class="fil0" points="107,185 123,185 123,193 107,193 "/>
   <path class="fil0" d="M193 250c34,0 62,-27 62,-61 0,-34 -28,-62 -62,-62 -34,0 -62,28 -62,62 0,34 28,61 62,61zm0 -115c29,0 53,24 53,54 0,29 -24,53 -53,53 -30,0 -53,-24 -53,-53 0,-30 23,-53 53,-54z"/>
   <g>
    <g>
     <path class="fil0" d="M232 157c-4,-3 -8,-2 -11,1l-38 47 -13 -15c-2,-3 -7,-3 -10,-1 -4,3 -4,7 -2,10l25 28 50 -61c3,-3 2,-7 -1,-9z"/>
    </g>
   </g>
  </g>
  <rect class="fil1" width="255" height="255"/>
 </g>
</svg>
